<svg width="968" height="529" viewBox="0 0 968 529" fill="none" xmlns="http://www.w3.org/2000/svg">
<g clip-path="url(#clip0_8_2)">
<path d="M267.719 265.859L266.305 264.445L327.767 202.982H446.875L506.97 141.647H624.539L683.855 81.869H959.972V83.869H684.688L625.372 143.647H507.81L447.715 204.982H328.596L267.719 265.859Z" fill="#3F3D56"/>
<path d="M508.972 180C529.407 180 545.972 163.435 545.972 143C545.972 122.565 529.407 106 508.972 106C488.538 106 471.972 122.565 471.972 143C471.972 163.435 488.538 180 508.972 180Z" fill="white"/>
<path d="M684.972 93C690.495 93 694.972 88.5228 694.972 83C694.972 77.4772 690.495 73 684.972 73C679.45 73 674.972 77.4772 674.972 83C674.972 88.5228 679.45 93 684.972 93Z" fill="#CBCBCB"/>
<path d="M957.972 93C963.495 93 967.972 88.5228 967.972 83C967.972 77.4772 963.495 73 957.972 73C952.45 73 947.972 77.4772 947.972 83C947.972 88.5228 952.45 93 957.972 93Z" fill="#CBCBCB"/>
<path d="M821.972 93C827.495 93 831.972 88.5228 831.972 83C831.972 77.4772 827.495 73 821.972 73C816.45 73 811.972 77.4772 811.972 83C811.972 88.5228 816.45 93 821.972 93Z" fill="#CBCBCB"/>
<path d="M508.972 181C501.457 181 494.11 178.771 487.861 174.596C481.612 170.42 476.741 164.486 473.865 157.542C470.989 150.598 470.236 142.958 471.703 135.587C473.169 128.215 476.788 121.444 482.102 116.13C487.417 110.816 494.188 107.196 501.559 105.73C508.93 104.264 516.571 105.016 523.514 107.893C530.458 110.769 536.393 115.639 540.568 121.888C544.744 128.137 546.972 135.484 546.972 143C546.961 153.075 542.954 162.734 535.83 169.857C528.706 176.981 519.047 180.989 508.972 181ZM508.972 107C501.852 107 494.892 109.111 488.972 113.067C483.052 117.023 478.438 122.645 475.713 129.223C472.988 135.802 472.275 143.04 473.664 150.023C475.053 157.007 478.482 163.421 483.517 168.456C488.551 173.491 494.966 176.919 501.949 178.308C508.932 179.697 516.171 178.984 522.749 176.26C529.327 173.535 534.95 168.921 538.905 163.001C542.861 157.08 544.972 150.12 544.972 143C544.962 133.456 541.165 124.305 534.416 117.556C527.667 110.807 518.517 107.011 508.972 107V107Z" fill="#3F3D56"/>
<path d="M508.972 169.436C523.573 169.436 535.409 157.6 535.409 143C535.409 128.4 523.573 116.564 508.972 116.564C494.372 116.564 482.536 128.4 482.536 143C482.536 157.6 494.372 169.436 508.972 169.436Z" fill="#6C63FF"/>
<path d="M506.453 154.16L498.541 143.986L503.142 140.407L506.889 145.224L519.545 131.863L523.777 135.873L506.453 154.16Z" fill="white"/>
<path d="M326.972 241C347.407 241 363.972 224.435 363.972 204C363.972 183.565 347.407 167 326.972 167C306.538 167 289.972 183.565 289.972 204C289.972 224.435 306.538 241 326.972 241Z" fill="white"/>
<path d="M326.972 242C319.457 242 312.11 239.771 305.861 235.596C299.612 231.42 294.741 225.486 291.865 218.542C288.989 211.598 288.236 203.958 289.703 196.587C291.169 189.215 294.788 182.444 300.102 177.13C305.417 171.816 312.188 168.196 319.559 166.73C326.93 165.264 334.571 166.016 341.514 168.893C348.458 171.769 354.393 176.639 358.568 182.888C362.744 189.137 364.972 196.484 364.972 204C364.961 214.075 360.954 223.734 353.83 230.857C346.706 237.981 337.047 241.989 326.972 242ZM326.972 168C319.852 168 312.892 170.111 306.972 174.067C301.052 178.023 296.438 183.645 293.713 190.223C290.988 196.802 290.275 204.04 291.664 211.023C293.053 218.007 296.482 224.421 301.517 229.456C306.551 234.491 312.966 237.919 319.949 239.308C326.933 240.697 334.171 239.984 340.749 237.26C347.327 234.535 352.95 229.921 356.905 224.001C360.861 218.08 362.972 211.12 362.972 204C362.962 194.456 359.165 185.305 352.416 178.556C345.667 171.807 336.517 168.011 326.972 168V168Z" fill="#3F3D56"/>
<path d="M326.972 230.436C341.573 230.436 353.409 218.6 353.409 204C353.409 189.4 341.573 177.564 326.972 177.564C312.372 177.564 300.536 189.4 300.536 204C300.536 218.6 312.372 230.436 326.972 230.436Z" fill="#6C63FF"/>
<path d="M324.453 215.16L316.541 204.986L321.142 201.407L324.889 206.224L337.545 192.863L341.777 196.873L324.453 215.16Z" fill="white"/>
</g>
<defs>
<clipPath id="clip0_8_2">
<rect width="967.972" height="529" fill="white"/>
</clipPath>
</defs>
</svg>
