<svg width="485" height="431" viewBox="0 0 485 431" fill="none" xmlns="http://www.w3.org/2000/svg">
<path d="M242.33 308.951C177.897 308.951 117.292 299.359 71.6777 281.943C25.4556 264.295 0 240.588 0 215.188C0 189.789 25.4556 166.083 71.6777 148.435C117.292 131.018 177.897 121.427 242.33 121.427C306.763 121.427 367.368 131.018 412.982 148.435C459.204 166.083 484.66 189.79 484.66 215.188C484.66 240.587 459.204 264.295 412.982 281.943C367.368 299.359 306.763 308.951 242.33 308.951V308.951ZM242.33 125.427C178.373 125.427 118.274 134.925 73.1045 152.171C28.5415 169.186 3.99999 191.566 3.99999 215.188C3.99999 238.81 28.5415 261.191 73.1045 278.206C118.274 295.453 178.373 304.951 242.33 304.951C306.287 304.951 366.386 295.453 411.555 278.206C456.118 261.191 480.66 238.811 480.66 215.188C480.66 191.565 456.118 169.186 411.555 152.171C366.385 134.925 306.287 125.427 242.33 125.427V125.427Z" fill="#61DAFB"/>
<path d="M342.452 430.378C322.428 430.378 297.467 418.805 269.845 396.355C231.955 365.56 193.345 317.87 161.129 262.07C128.913 206.27 106.917 148.988 99.1929 100.777C91.3657 51.9228 99.1689 18.0243 121.165 5.32512C143.161 -7.37361 176.42 2.8178 214.814 34.0224C252.705 64.8178 291.314 112.508 323.53 168.308C355.747 224.107 377.743 281.39 385.467 329.601C393.294 378.455 385.491 412.353 363.495 425.054C357.323 428.616 350.262 430.378 342.452 430.378V430.378ZM142.314 3.96917C135.175 3.96917 128.752 5.56292 123.165 8.78899C102.707 20.6005 95.5962 53.0439 103.143 100.144C110.792 147.886 132.615 204.682 164.593 260.07C196.572 315.458 234.847 362.756 272.368 393.251C309.385 423.337 341.038 433.402 361.495 421.589C381.953 409.777 389.063 377.334 381.517 330.234C373.868 282.492 352.044 225.696 320.066 170.308C288.088 114.92 249.813 67.622 212.291 37.1269C185.386 15.2587 161.313 3.96917 142.314 3.96917Z" fill="#61DAFB"/>
<path d="M142.207 430.378C134.395 430.378 127.338 428.617 121.165 425.054C99.1689 412.353 91.3657 378.455 99.1929 329.602C106.917 281.39 128.913 224.107 161.129 168.308C193.345 112.508 231.955 64.8178 269.845 34.0224C308.24 2.81731 341.5 -7.37507 363.495 5.32512C385.491 18.0243 393.294 51.9228 385.467 100.777C377.743 148.988 355.747 206.27 323.53 262.07C291.314 317.87 252.705 365.56 214.814 396.355C187.195 418.804 162.23 430.378 142.207 430.378V430.378ZM342.345 3.96917C323.346 3.96917 299.276 15.2573 272.368 37.1269C234.847 67.622 196.572 114.92 164.593 170.308C132.615 225.696 110.791 282.492 103.143 330.234C95.5962 377.334 102.707 409.777 123.165 421.589C128.751 424.814 135.177 426.408 142.314 426.409C161.314 426.411 185.383 415.121 212.291 393.251C249.813 362.756 288.088 315.458 320.066 260.07C352.044 204.682 373.868 147.886 381.517 100.144C389.063 53.0439 381.953 20.6005 361.495 8.78899C355.908 5.56389 349.482 3.96917 342.345 3.96917V3.96917Z" fill="#61DAFB"/>
<path d="M242.33 259.978C267.066 259.978 287.119 239.925 287.119 215.189C287.119 190.453 267.066 170.4 242.33 170.4C217.594 170.4 197.541 190.453 197.541 215.189C197.541 239.925 217.594 259.978 242.33 259.978Z" fill="#61DAFB"/>
</svg>
